<svg viewBox="0 0 24 24" xmlns="http://www.w3.org/2000/svg"><path d="M18 18V5a3 3 0 0 0-3-3 3 3 0 0 0-3 3v1h2V5a1 1 0 0 1 1-1 1 1 0 0 1 .71.31A1 1 0 0 1 16 5v2H8V5a2.92 2.92 0 0 0-.87-2.11A2.94 2.94 0 0 0 5 2a3 3 0 0 0-3 3v1h2V5a1 1 0 0 1 1-1 1 1 0 0 1 .71.31A1 1 0 0 1 6 5v15c-.56 0-.8-.22-1.29-.71A3.56 3.56 0 0 0 2 18v2c.56 0 .8.22 1.29.71A3.56 3.56 0 0 0 6 22a3.56 3.56 0 0 0 2.7-1.29c.49-.49.73-.71 1.29-.71s.8.22 1.29.71a3.48 3.48 0 0 0 5.42 0c.49-.49.73-.71 1.3-.71s.8.22 1.29.71A3.57 3.57 0 0 0 22 22v-2c-.56 0-.8-.22-1.29-.71A3.57 3.57 0 0 0 18 18Zm-2-3H8v-2h8Zm0-6v2H8V9Zm-2 11c-.56 0-.8-.22-1.29-.71A3.56 3.56 0 0 0 10 18a3.2 3.2 0 0 0-2 .65V17h8v1.65a6.48 6.48 0 0 0-.71.64c-.5.49-.74.71-1.29.71Z" data-name="Layer 2" fill="#ffffff" class="fill-000000"></path></svg>